<svg width="243" height="258" viewBox="0 0 243 258" fill="none" xmlns="http://www.w3.org/2000/svg">
    <path d="M116.936 166L49.0001 238C34.1233 255.746 18.6698 257.745 7.50997 247C-3.31281 234.585 -1.09675 219.42 17.0001 203.5L94.0001 130.287M116.936 166L201.5 250.5C211.083 259.782 223.689 259.183 233.904 251.5C242.067 242.998 244.935 230.027 237.5 220L149.488 131.5M116.936 166L149.488 131.5M149.488 131.5L166 114C179.869 117.584 190.707 118.247 199.5 115.605C230.694 104.283 240.734 84.4356 236.5 53.5L206 80.5L178.5 74L172.5 47L198.5 15C185.779 9.88954 167.634 14.9376 152.5 27.0091C145.522 33.3231 140.235 42.1009 136.815 53.5C134.809 62.3708 135.568 73.4044 139 87.5L116.5 108.893M94.0001 130.287L51.5001 88.5C30.9641 93.2304 18.3426 114.655 17.5001 132.154C15.2518 134.857 13.697 136.06 13.0001 135C2.31756 105.93 3.13159 89.2793 25.5001 58.5C30.5324 45.5235 36.2642 42.276 46.5001 36.5C46.96 24.8535 56.1915 16.3508 73.5001 1C89.5299 14.8435 97.666 23.0971 111 38.5C96.6069 53.206 88.5592 61.2651 75.0001 69L116.5 108.893M94.0001 130.287L116.5 108.893M25.5 218.5C14.5 218.5 14.5 228.5 14.5 228.5C14.5 228.5 15.5 238.5 25.5 238.5C35.5 238.5 35.5 228.5 35.5 228.5C35.5 228.5 36.5 218.5 25.5 218.5Z"
          stroke="black"/>
</svg>
