<svg width="40" height="40" viewBox="0 0 31 30" fill="none" xmlns="http://www.w3.org/2000/svg">
    <path fill-rule="evenodd" clip-rule="evenodd"
          d="M15.9106 0C7.62637 0 0.910645 6.71573 0.910645 15C0.910645 23.2843 7.62637 30 15.9106 30C24.1949 30 30.9106 23.2843 30.9106 15C30.9106 6.71573 24.1949 0 15.9106 0ZM23.7473 13.3806C23.8555 13.9061 23.9106 14.4475 23.9106 14.9889C23.9106 15.5299 23.8555 16.0702 23.7473 16.5969C23.6419 17.111 23.4856 17.6157 23.2809 18.0983C23.0809 18.5723 22.8329 19.029 22.543 19.455C22.2575 19.8782 21.9285 20.2753 21.5672 20.6373C21.205 20.9977 20.8066 21.3258 20.3835 21.6125C19.9562 21.9004 19.4987 22.1481 19.0245 22.349C18.5413 22.5526 18.0353 22.7086 17.5216 22.814C16.9943 22.9224 16.4521 22.9778 15.9103 22.9778C15.368 22.9778 14.8258 22.9224 14.2992 22.814C13.7848 22.7086 13.2789 22.5526 12.796 22.349C12.3218 22.1481 11.8639 21.9004 11.4366 21.6125C11.0135 21.3258 10.6151 20.9977 10.2537 20.6373C9.89199 20.2753 9.56305 19.8782 9.27711 19.455C8.98881 19.029 8.74034 18.5722 8.53956 18.0983C8.33484 17.6157 8.17821 17.111 8.07234 16.5969C7.96532 16.0702 7.91061 15.5299 7.91061 14.9889C7.91061 14.4475 7.96529 13.9061 8.07238 13.3806C8.17824 12.8664 8.33487 12.3609 8.53959 11.8792C8.74037 11.4048 8.98884 10.9477 9.27714 10.5217C9.56308 10.0981 9.89203 9.70172 10.2538 9.33933C10.6151 8.97887 11.0136 8.65163 11.4366 8.36531C11.864 8.07624 12.3218 7.82857 12.7961 7.62727C13.2789 7.42321 13.7848 7.26681 14.2993 7.16229C14.8259 7.05463 15.3681 7.00001 15.9103 7.00001C16.4521 7.00001 16.9943 7.05463 17.5217 7.16229C18.0354 7.26685 18.5413 7.42325 19.0245 7.62727C19.4987 7.82854 19.9562 8.07624 20.3835 8.36531C20.8066 8.65163 21.2051 8.97887 21.5672 9.33933C21.9285 9.70172 22.2575 10.0981 22.543 10.5217C22.8329 10.9477 23.0809 11.4049 23.2809 11.8792C23.4856 12.3609 23.6419 12.8664 23.7473 13.3806Z"
          fill="#FEE213"/>
    <path fill-rule="evenodd" clip-rule="evenodd"
          d="M20.4215 9.86957L20.4221 9.86867C19.2193 8.80957 17.6399 8.16714 15.9101 8.16714C15.355 8.16714 14.8163 8.23425 14.3003 8.35828L14.3114 8.37315L14.3114 8.37315L14.3114 8.37316C14.4732 8.58957 15.7181 10.2546 16.8543 12.3379C19.4111 11.3807 20.3892 9.91782 20.4215 9.86957ZM21.1858 10.6556C21.1592 10.6936 20.0603 12.2614 17.3801 13.3544C17.5387 13.6798 17.6923 14.0109 17.834 14.3437C17.8845 14.4631 17.9337 14.5801 17.9817 14.6971C20.2838 14.4078 22.5524 14.8797 22.7317 14.917L22.7398 14.9186C22.7242 13.3014 22.1448 11.8171 21.1862 10.6551L21.1858 10.6556ZM18.3982 15.7737C19.2943 18.2328 19.6584 20.2355 19.728 20.6466C21.262 19.6129 22.3515 17.9715 22.6555 16.0702C22.5148 16.0249 20.6034 15.4207 18.3982 15.7737ZM17.118 16.0897C18.0793 18.5847 18.4762 20.6739 18.5774 21.27C17.7574 21.6183 16.8562 21.8106 15.9101 21.8106C14.3256 21.8106 12.8709 21.2672 11.711 20.3666C11.7253 20.3357 13.0417 17.5078 17.0727 16.1045C17.0821 16.1011 17.0917 16.098 17.1014 16.095L17.118 16.0897ZM16.098 13.7999C16.2937 14.183 16.4809 14.5715 16.6523 14.9593C16.5625 14.985 16.4719 15.0115 16.3828 15.0412C12.6959 16.2317 10.8263 19.5439 10.8286 19.5474C9.74027 18.3393 9.07812 16.7415 9.07812 14.9889C9.07812 14.9383 9.07979 14.8888 9.08148 14.8389L9.08148 14.8389C9.08223 14.8165 9.08299 14.794 9.0836 14.7712C9.20469 14.7759 12.5803 14.8516 16.098 13.7999ZM15.532 12.7494C14.3495 10.6515 13.0862 8.93951 12.9951 8.81816C11.0899 9.71654 9.668 11.4696 9.22461 13.5823C9.2265 13.5823 9.22869 13.5823 9.23117 13.5823C9.46465 13.5845 12.2862 13.6106 15.532 12.7494Z"
          fill="#FEE213"/>
</svg>
