<svg width="40" height="40" viewBox="0 0 31 30" fill="none" xmlns="http://www.w3.org/2000/svg">
    <path fill-rule="evenodd" clip-rule="evenodd"
          d="M15.9106 0C7.62637 0 0.910645 6.71573 0.910645 15C0.910645 23.2843 7.62637 30 15.9106 30C24.1949 30 30.9106 23.2843 30.9106 15C30.9106 6.71573 24.1949 0 15.9106 0ZM8.11172 12.4236H11.5111V22.6372H8.11172V12.4236ZM11.7348 9.26419C11.7128 8.26275 10.9966 7.5 9.83376 7.5C8.67087 7.5 7.91061 8.26275 7.91061 9.26419C7.91061 10.2449 8.6484 11.0296 9.78963 11.0296H9.81136C10.9966 11.0296 11.7348 10.2449 11.7348 9.26419ZM19.8564 12.1838C22.0933 12.1838 23.7703 13.6439 23.7703 16.7811L23.7702 22.6372H20.371V17.173C20.371 15.8005 19.8791 14.8639 18.6485 14.8639C17.7094 14.8639 17.15 15.4953 16.9043 16.1051C16.8144 16.3236 16.7924 16.6281 16.7924 16.9334V22.6375H13.3926C13.3926 22.6375 13.4374 13.3823 13.3926 12.4239H16.7924V13.8706C17.2435 13.1752 18.0516 12.1838 19.8564 12.1838Z"
          fill="#FEE213"/>
</svg>
