<svg width="40" height="40" viewBox="0 0 30 30" fill="none" xmlns="http://www.w3.org/2000/svg">
    <path d="M15.0001 0C6.71687 0 0 6.83014 0 15.2562C0 21.9969 4.29799 27.7157 10.258 29.733C11.0077 29.8743 11.2829 29.4021 11.2829 28.9991C11.2829 28.6353 11.269 27.4335 11.2625 26.1587C7.08946 27.0816 6.2089 24.3586 6.2089 24.3586C5.52656 22.5952 4.54341 22.1263 4.54341 22.1263C3.18245 21.1794 4.646 21.1988 4.646 21.1988C6.15227 21.3062 6.94539 22.771 6.94539 22.771C8.28325 25.1034 10.4545 24.4291 11.3105 24.0393C11.4451 23.0535 11.8338 22.3799 12.2628 21.9992C8.93107 21.6134 5.42869 20.3052 5.42869 14.4594C5.42869 12.7937 6.01466 11.4327 6.97421 10.3643C6.81846 9.97981 6.30503 8.42835 7.11952 6.32688C7.11952 6.32688 8.37914 5.91684 11.2456 7.89073C12.4421 7.55269 13.7254 7.38317 15.0001 7.37736C16.2749 7.38317 17.5591 7.55269 18.7579 7.89073C21.6209 5.91684 22.8787 6.32688 22.8787 6.32688C23.6952 8.42835 23.1815 9.97981 23.0258 10.3643C23.9876 11.4327 24.5696 12.7937 24.5696 14.4594C24.5696 20.3191 21.0605 21.6094 17.7203 21.9871C18.2583 22.4605 18.7377 23.389 18.7377 24.8123C18.7377 26.8534 18.7203 28.4964 18.7203 28.9991C18.7203 29.4051 18.9904 29.8808 19.7507 29.731C25.7075 27.7114 30 21.9946 30 15.2562C30 6.83014 23.2841 0 15.0001 0Z"
          fill="#FEE213"/>
    <path d="M5.68126 21.9047C5.64823 21.9807 5.53098 22.0032 5.42417 21.9512C5.31538 21.9014 5.25427 21.7981 5.28954 21.722C5.32184 21.644 5.43933 21.6225 5.54788 21.6743C5.65692 21.7243 5.71902 21.8286 5.68126 21.9047Z"
          fill="#FEE213"/>
    <path d="M6.28891 22.5939C6.21737 22.6614 6.07752 22.63 5.98263 22.5234C5.88452 22.4171 5.86614 22.2748 5.93867 22.2064C6.01244 22.1389 6.14807 22.1705 6.24643 22.2769C6.34455 22.3845 6.36367 22.5257 6.28891 22.5939Z"
          fill="#FEE213"/>
    <path d="M6.88033 23.4726C6.78843 23.5375 6.63815 23.4766 6.54525 23.341C6.45334 23.2053 6.45334 23.0426 6.54723 22.9774C6.64038 22.9122 6.78843 22.9708 6.88257 23.1055C6.97423 23.2432 6.97423 23.4061 6.88033 23.4726Z"
          fill="#FEE213"/>
    <path d="M7.69068 24.3215C7.60846 24.4137 7.43334 24.3889 7.30517 24.2631C7.17401 24.1401 7.1375 23.9655 7.21997 23.8733C7.30318 23.7808 7.47929 23.8068 7.60846 23.9316C7.73862 24.0544 7.77836 24.2302 7.69068 24.3215Z"
          fill="#FEE213"/>
    <path d="M8.80836 24.8144C8.7721 24.9339 8.60343 24.9882 8.43353 24.9374C8.26388 24.8851 8.15284 24.7451 8.18712 24.6244C8.2224 24.5041 8.3918 24.4475 8.56295 24.5018C8.73235 24.5539 8.84363 24.6928 8.80836 24.8144Z"
          fill="#FEE213"/>
    <path d="M10.0359 24.9058C10.0402 25.0316 9.8961 25.136 9.71775 25.138C9.53841 25.1423 9.39334 25.0405 9.39136 24.9167C9.39136 24.7896 9.5322 24.6863 9.71154 24.6833C9.88989 24.6797 10.0359 24.7808 10.0359 24.9058Z"
          fill="#FEE213"/>
    <path d="M11.1784 24.708C11.1997 24.8308 11.0758 24.9568 10.8987 24.9902C10.7245 25.0228 10.5633 24.947 10.5412 24.8252C10.5196 24.6994 10.6458 24.5733 10.8197 24.5407C10.997 24.5094 11.1558 24.5832 11.1784 24.708Z"
          fill="#FEE213"/>
</svg>
